# xmcd CD database file
#
# Track frame offsets:
#	150
#	18792
#	40669
#	60538
#	85851
#	108629
#	126987
#	141701
#	168793
#	194142
#	219169
#	239124
#	260576
#
# Disc length: 3807 seconds
#
# Revision: 0
# Processed by: cddbd v1.5.2PL0 Copyright (c) Steve Scherf et al.
# Submitted via: CDex 1.70beta2
#
DISCID=c00edd0d
DTITLE=Mississippi Heat - Hattiesburg Blues
DYEAR=2008
DGENRE=Blues
TTITLE0=Tiger Man
TTITLE1=Chicago Is My Home
TTITLE2=Forgot You Had A Home
TTITLE3=How Much Worse Can It Be?
TTITLE4=Soft-Hearted Woman
TTITLE5=Hattiesburg Blues
TTITLE6=Gone So Long
TTITLE7=Light From Within
TTITLE8=Calypso In Blue
TTITLE9=Hell And Back
TTITLE10=Say Something Good
TTITLE11=Foolish Man
TTITLE12=Nature Is Cryin'
EXTD=YEAR: 2008
EXTT0=
EXTT1=
EXTT2=
EXTT3=
EXTT4=
EXTT5=
EXTT6=
EXTT7=
EXTT8=
EXTT9=
EXTT10=
EXTT11=
EXTT12=
PLAYORDER=
